<svg fill="none" viewBox="0 0 163 40" xmlns="http://www.w3.org/2000/svg" xmlns:xlink="http://www.w3.org/1999/xlink"><clipPath id="a"><path d="m0 0h162.856v40h-162.856z"/></clipPath><g clip-path="url(#a)" fill="#F38A4A"><path d="m19.5651 10.2884c2.841 0 5.1442-2.30317 5.1442-5.14422s-2.3032-5.14418-5.1442-5.14418c-2.8411 0-5.1442 2.30313-5.1442 5.14418s2.3031 5.14422 5.1442 5.14422z"/><path d="m24.2711 14.9387c-.185-.1419-.3639-.2652-.5366-.3639-1.1596-.6723-2.4117-1.0177-3.6639-1.0918-.0123 0-.0246 0-.037 0-.1727-.0061-.3392-.0123-.5119-.0123s-.3393 0-.512.0123c-.0123 0-.0246 0-.037 0-1.2521.0741-2.5042.4256-3.6638 1.0918-.3948.2282-.8204.5736-1.2768.9992-.2776.2467-.5366.5181-.7834.8019-4.08939 4.4842-9.53581 14.5073-9.53581 14.5073s5.39707.1419 10.69541-.1974c2.3563 4.7433 5.1566 9.32 5.1566 9.32s2.8003-4.5706 5.1503-9.3138c5.2737.3269 10.6153.1912 10.6153.1912s-4.8666-8.9622-8.8574-13.724c-.586-.8697-1.3385-1.6222-2.202-2.2205z"/><path d="m9.60344 16.0241c1.41866-2.461.57976-5.6068-1.88127-7.03159-2.46106-1.41866-5.60678-.5798-7.031608 1.88129-1.424827 2.461-.5798 5.6068 1.881268 7.0316 2.46106 1.4186 5.60678.5798 7.03161-1.8813z"/><path d="m38.3525 10.8804c-1.4187-2.46104-4.5706-3.30607-7.0317-1.88124-2.461 1.41864-3.306 4.57054-1.8812 7.03164 1.4186 2.461 4.5705 3.3061 7.0316 1.8812 2.4611-1.4186 3.3061-4.5705 1.8813-7.0316z"/><path d="m65.7397 30.8842v-10.1341l-3.3246 6.5936h-2.2945l-3.3492-6.5936v10.1341h-3.3925v-17.394h3.3493l4.5458 9.4064 4.5213-9.4064h3.3431v17.394h-3.3925z"/><path d="m82.2514 30.8842-1.0239-3.0779h-6.1804l-1.0486 3.0779h-3.5405l6.3285-17.394h2.6646l6.3531 17.394h-3.5405zm-4.0525-12.2621-2.1958 6.3284h4.3238z"/><path d="m97.4004 30.8842-6.8898-10.6769v10.6769h-3.3924v-17.394h3.0285l6.8897 10.6523v-10.6523h3.3926v17.394z"/><path d="m113.542 30.8842-1.024-3.0779h-6.18l-1.049 3.0779h-3.54l6.328-17.394h2.665l6.353 17.394h-3.54zm-4.052-12.2621-2.196 6.3284h4.324z"/><path d="m118.328 25.3881-1.116-2.9545h8.5l1.116 2.9545z"/><path d="m134.304 30.8842h-2.541l-5.742-17.394h3.515l3.491 11.337 3.492-11.337h3.54l-5.767 17.394z"/><path d="m150.378 24.5067c0 1.1719-.099 2.1403-.296 2.9052-.198.7648-.58 1.4495-1.154 2.0539-.388.4256-.913.7896-1.566 1.098-.654.3084-1.45.4626-2.4.4626s-1.739-.1542-2.387-.4626-1.166-.6785-1.554-1.098c-.574-.6044-.956-1.2829-1.154-2.0539-.197-.771-.296-1.7333-.296-2.9052s.099-2.1156.296-2.8805c.198-.7648.58-1.4495 1.154-2.054.395-.4256.906-.7895 1.554-1.0979.642-.3084 1.437-.4626 2.387-.4626s1.746.1542 2.4.4626c.653.3084 1.178.6785 1.566 1.0979.574.6045.956 1.2892 1.154 2.054.197.7649.296 1.7271.296 2.8805zm-3.201 0c0-.6661-.044-1.2644-.124-1.7949s-.284-.9561-.604-1.283c-.37-.3762-.864-.5613-1.481-.5613-.616 0-1.085.1851-1.455.5613-.321.3269-.525.7525-.605 1.283s-.123 1.1288-.123 1.7949c0 .6662.043 1.2706.123 1.8073.08.5366.284.9683.605 1.2953.37.3762.857.5612 1.455.5612.599 0 1.111-.185 1.481-.5612.32-.327.524-.7587.604-1.2953.08-.5367.124-1.1411.124-1.8073z"/><path d="m159.044 30.8849-2.344-3.8119-2.319 3.8119h-3.812l4.398-6.495-4.225-6.2297h3.812l2.146 3.6391 2.172-3.6391h3.811l-4.225 6.2297 4.398 6.495z"/></g></svg>